<svg width="1872" height="956" viewBox="0 0 1872 956" fill="none" xmlns="http://www.w3.org/2000/svg">
<mask id="mask0_1418_3" style="mask-type:alpha" maskUnits="userSpaceOnUse" x="0" y="0" width="1872" height="956">
<mask id="mask1_1418_3" style="mask-type:alpha" maskUnits="userSpaceOnUse" x="0" y="0" width="1872" height="956">
<rect width="1872" height="956" fill="#D9D9D9"/>
</mask>
<g mask="url(#mask1_1418_3)">
<path d="M936.808 818.514C1096.67 818.514 1251.75 831.132 1397.73 856.017C1538.7 880.044 1665.3 914.446 1774.01 958.249C1882.61 1002.01 1967.86 1052.97 2027.36 1109.67C2088.75 1168.15 2119.88 1230.21 2119.88 1294.12C2119.88 1358.03 2088.75 1420.09 2027.36 1478.57C1967.84 1535.27 1882.61 1586.23 1774.01 1629.99C1665.32 1673.79 1538.72 1708.2 1397.73 1732.22C1251.75 1757.11 1096.67 1769.73 936.808 1769.73C776.942 1769.73 621.865 1757.11 475.882 1732.22C334.914 1708.2 208.317 1673.79 99.604 1629.99C-8.99622 1586.23 -94.2459 1535.27 -153.74 1478.57C-215.132 1420.09 -246.26 1358.03 -246.26 1294.12C-246.26 1230.21 -215.132 1168.15 -153.74 1109.67C-94.2271 1052.97 -8.99622 1002.01 99.604 958.249C208.298 914.446 334.895 880.044 475.882 856.017C621.865 831.132 776.942 818.514 936.808 818.514ZM936.808 816.563C282.389 816.563 -248.138 1030.37 -248.138 1294.12C-248.138 1557.87 282.37 1771.68 936.808 1771.68C1591.25 1771.68 2121.75 1557.87 2121.75 1294.12C2121.75 1030.37 1591.25 816.563 936.808 816.563Z" fill="url(#paint0_linear_1418_3)"/>
<path d="M936.807 678.505C1187.18 678.505 1430.08 691.123 1658.72 716.028C1879.55 740.074 2077.87 774.496 2248.16 818.318C2418.36 862.14 2551.97 913.139 2645.26 969.911C2692.43 998.619 2728.63 1028.63 2752.86 1059.12C2777.58 1090.22 2790.11 1122.19 2790.11 1154.11C2790.11 1186.04 2777.58 1218.02 2752.86 1249.11C2728.63 1279.59 2692.43 1309.61 2645.26 1338.31C2551.97 1395.08 2418.38 1446.08 2248.16 1489.91C2077.87 1533.75 1879.55 1568.17 1658.72 1592.2C1430.06 1617.1 1187.18 1629.72 936.807 1629.72C686.432 1629.72 443.532 1617.1 214.891 1592.2C-5.93475 1568.15 -204.256 1533.73 -374.548 1489.91C-544.747 1446.08 -678.351 1395.08 -771.622 1338.31C-818.793 1309.61 -854.993 1279.59 -879.226 1249.11C-903.948 1218 -916.478 1186.04 -916.478 1154.11C-916.478 1122.19 -903.948 1090.2 -879.226 1059.12C-854.993 1028.63 -818.793 998.619 -771.622 969.911C-678.332 913.139 -544.747 862.14 -374.548 818.318C-204.256 774.477 -5.93475 740.055 214.891 716.028C443.551 691.123 686.432 678.505 936.807 678.505ZM936.807 676.555C-87.7839 676.555 -918.376 890.36 -918.376 1154.11C-918.376 1417.86 -87.7839 1631.67 936.807 1631.67C1961.4 1631.67 2791.99 1417.86 2791.99 1154.11C2791.99 890.36 1961.4 676.555 936.807 676.555Z" fill="url(#paint1_linear_1418_3)"/>
<path d="M936.808 539.569C1301.81 539.569 1655.89 552.187 1989.22 577.092C2311.15 601.139 2600.28 635.561 2848.55 679.422C3096.75 723.263 3291.6 774.282 3427.68 831.112C3496.53 859.858 3549.37 889.912 3584.75 920.453C3620.76 951.52 3639 983.407 3639 1015.2C3639 1046.98 3620.74 1078.87 3584.75 1109.94C3549.37 1140.48 3496.53 1170.53 3427.68 1199.28C3291.62 1256.09 3096.77 1307.13 2848.55 1350.97C2600.28 1394.81 2311.15 1429.25 1989.22 1453.3C1655.89 1478.2 1301.81 1490.82 936.808 1490.82C571.801 1490.82 217.728 1478.2 -115.605 1453.3C-437.536 1429.25 -726.667 1394.83 -974.939 1350.97C-1223.14 1307.13 -1417.98 1256.11 -1554.07 1199.28C-1622.91 1170.53 -1675.76 1140.48 -1711.13 1109.94C-1747.14 1078.87 -1765.39 1046.98 -1765.39 1015.2C-1765.39 983.407 -1747.13 951.52 -1711.13 920.453C-1675.76 889.912 -1622.91 859.858 -1554.07 831.112C-1418 774.301 -1223.15 723.263 -974.939 679.422C-726.667 635.58 -437.536 601.139 -115.605 577.092C217.728 552.187 571.801 539.569 936.808 539.569ZM936.808 537.619C-556.6 537.619 -1767.26 751.425 -1767.26 1015.18C-1767.26 1278.93 -556.6 1492.73 936.808 1492.73C2430.22 1492.73 3640.88 1278.93 3640.88 1015.18C3640.88 751.425 2430.22 537.619 936.808 537.619Z" fill="url(#paint2_linear_1418_3)"/>
<path d="M936.808 -815.014C1096.67 -815.014 1251.75 -802.396 1397.73 -777.511C1538.7 -753.484 1665.3 -719.081 1774.01 -675.279C1882.61 -631.515 1967.86 -580.555 2027.36 -523.862C2088.75 -465.374 2119.88 -403.317 2119.88 -339.407C2119.88 -275.498 2088.75 -213.441 2027.36 -154.953C1967.84 -98.2592 1882.61 -47.2993 1774.01 -3.53571C1665.32 40.2668 1538.72 74.6692 1397.73 98.6963C1251.75 123.581 1096.67 136.199 936.808 136.199C776.942 136.199 621.865 123.581 475.882 98.6963C334.914 74.6692 208.317 40.2668 99.604 -3.53571C-8.99622 -47.2993 -94.2459 -98.2592 -153.74 -154.953C-215.132 -213.441 -246.26 -275.498 -246.26 -339.407C-246.26 -403.317 -215.132 -465.374 -153.74 -523.862C-94.2271 -580.555 -8.99622 -631.515 99.604 -675.279C208.298 -719.081 334.895 -753.484 475.882 -777.511C621.865 -802.396 776.942 -815.014 936.808 -815.014ZM936.808 -816.964C282.389 -816.964 -248.138 -603.159 -248.138 -339.407C-248.138 -75.6559 282.37 138.15 936.808 138.15C1591.25 138.15 2121.75 -75.6559 2121.75 -339.407C2121.75 -603.159 1591.25 -816.964 936.808 -816.964Z" fill="url(#paint3_linear_1418_3)"/>
<path d="M936.807 -675.006C1187.18 -675.006 1430.08 -662.388 1658.72 -637.483C1879.55 -613.437 2077.87 -579.015 2248.16 -535.193C2418.36 -491.371 2551.97 -440.372 2645.26 -383.6C2692.43 -354.892 2728.63 -324.878 2752.86 -294.396C2777.58 -263.289 2790.11 -231.325 2790.11 -199.399C2790.11 -167.473 2777.58 -135.489 2752.86 -104.402C2728.63 -73.9201 2692.43 -43.9058 2645.26 -15.1981C2551.97 41.5735 2418.38 92.5726 2248.16 136.395C2077.87 180.236 1879.55 214.658 1658.72 238.685C1430.06 263.59 1187.18 276.208 936.807 276.208C686.432 276.208 443.532 263.59 214.891 238.685C-5.93475 214.638 -204.256 180.217 -374.548 136.395C-544.747 92.5726 -678.351 41.5735 -771.622 -15.1981C-818.793 -43.9058 -854.993 -73.9201 -879.226 -104.402C-903.948 -135.509 -916.478 -167.473 -916.478 -199.399C-916.478 -231.325 -903.948 -263.309 -879.226 -294.396C-854.993 -324.878 -818.793 -354.892 -771.622 -383.6C-678.332 -440.372 -544.747 -491.371 -374.548 -535.193C-204.256 -579.034 -5.93475 -613.456 214.891 -637.483C443.551 -662.388 686.432 -675.006 936.807 -675.006ZM936.807 -676.956C-87.7839 -676.956 -918.376 -463.15 -918.376 -199.399C-918.376 64.3525 -87.7839 278.158 936.807 278.158C1961.4 278.158 2791.99 64.3525 2791.99 -199.399C2791.99 -463.15 1961.4 -676.956 936.807 -676.956Z" fill="url(#paint4_linear_1418_3)"/>
<path d="M936.808 -536.051C1301.81 -536.051 1655.89 -523.433 1989.22 -498.528C2311.15 -474.481 2600.28 -440.059 2848.55 -396.198C3096.75 -352.357 3291.6 -301.338 3427.68 -244.508C3496.53 -215.761 3549.37 -185.708 3584.75 -155.167C3620.76 -124.1 3639 -92.2132 3639 -60.4242C3639 -28.6352 3620.74 3.25137 3584.75 34.3188C3549.37 64.8597 3496.53 94.913 3427.68 123.66C3291.62 180.47 3096.77 231.508 2848.55 275.35C2600.28 319.192 2311.15 353.633 1989.22 377.679C1655.89 402.584 1301.81 415.202 936.808 415.202C571.801 415.202 217.728 402.584 -115.605 377.679C-437.536 353.633 -726.667 319.211 -974.939 275.35C-1223.14 231.508 -1417.98 180.49 -1554.07 123.66C-1622.91 94.913 -1675.76 64.8597 -1711.13 34.3188C-1747.14 3.25137 -1765.39 -28.6352 -1765.39 -60.4242C-1765.39 -92.2132 -1747.13 -124.1 -1711.13 -155.167C-1675.76 -185.708 -1622.91 -215.761 -1554.07 -244.508C-1418 -301.319 -1223.15 -352.357 -974.939 -396.198C-726.667 -440.04 -437.536 -474.481 -115.605 -498.528C217.728 -523.433 571.801 -536.051 936.808 -536.051ZM936.808 -538.001C-556.6 -538.001 -1767.26 -324.195 -1767.26 -60.4437C-1767.26 203.308 -556.6 417.113 936.808 417.113C2430.22 417.113 3640.88 203.308 3640.88 -60.4437C3640.88 -324.195 2430.22 -538.001 936.808 -538.001Z" fill="url(#paint5_linear_1418_3)"/>
</g>
</mask>
<g mask="url(#mask0_1418_3)">
<rect y="10.6749" width="1872" height="909.742" fill="url(#paint6_linear_1418_3)"/>
</g>
<defs>
<linearGradient id="paint0_linear_1418_3" x1="936.808" y1="816.563" x2="936.808" y2="1771.68" gradientUnits="userSpaceOnUse">
<stop/>
<stop offset="1" stop-color="#666666"/>
</linearGradient>
<linearGradient id="paint1_linear_1418_3" x1="936.807" y1="676.555" x2="936.807" y2="1631.67" gradientUnits="userSpaceOnUse">
<stop/>
<stop offset="1" stop-color="#666666"/>
</linearGradient>
<linearGradient id="paint2_linear_1418_3" x1="936.808" y1="537.619" x2="936.808" y2="1492.73" gradientUnits="userSpaceOnUse">
<stop/>
<stop offset="1" stop-color="#666666"/>
</linearGradient>
<linearGradient id="paint3_linear_1418_3" x1="936.808" y1="-816.964" x2="936.808" y2="138.15" gradientUnits="userSpaceOnUse">
<stop/>
<stop offset="1"/>
</linearGradient>
<linearGradient id="paint4_linear_1418_3" x1="936.807" y1="-676.956" x2="936.807" y2="278.158" gradientUnits="userSpaceOnUse">
<stop/>
<stop offset="1" stop-color="#666666"/>
</linearGradient>
<linearGradient id="paint5_linear_1418_3" x1="936.808" y1="-538.001" x2="936.808" y2="417.113" gradientUnits="userSpaceOnUse">
<stop/>
<stop offset="1" stop-color="#666666"/>
</linearGradient>
<linearGradient id="paint6_linear_1418_3" x1="0" y1="465.546" x2="1872" y2="465.546" gradientUnits="userSpaceOnUse">
<stop stop-color="#13C182" stop-opacity="0.6"/>
<stop offset="0.500017" stop-color="#FFBE0B" stop-opacity="0.1"/>
<stop offset="1" stop-color="#FC5F2B" stop-opacity="0.6"/>
</linearGradient>
</defs>
</svg>
