<svg width="288" height="48" viewBox="0 0 288 48" fill="none" xmlns="http://www.w3.org/2000/svg">
<g clip-path="url(#clip0_1474_7153)">
<path d="M8.71034 28.1604C9.16834 29.8344 9.88634 31.3804 10.8643 32.7964C11.8217 34.1903 12.9842 35.4317 14.3123 36.4784C15.6343 37.5184 17.1123 38.3264 18.7523 38.9044C20.4017 39.4841 22.1381 39.777 23.8863 39.7704C26.5863 39.7704 28.9423 39.2044 30.9563 38.0804C32.9683 36.9544 34.5803 35.6724 35.7843 34.2264H45.5303C44.601 36.2053 43.3964 38.0429 41.9523 39.6844C40.488 41.3592 38.8065 42.8309 36.9523 44.0604C35.0597 45.314 32.9975 46.2905 30.8283 46.9604C28.6163 47.6544 26.3023 48.0004 23.8883 48.0004C20.6123 48.0004 17.5183 47.3644 14.6163 46.0944C11.7828 44.8727 9.20768 43.1229 7.02834 40.9384C4.85388 38.7429 3.11401 36.1561 1.90034 33.3144C0.629882 30.3745 -0.0170737 27.203 0.000342512 24.0004C0.000342512 20.7084 0.630342 17.6044 1.89834 14.6864C3.11145 11.8432 4.85213 9.25563 7.02834 7.06037C9.20971 4.87886 11.7844 3.13006 14.6163 1.90637C17.5403 0.631381 20.6986 -0.0178568 23.8883 0.000373544C27.1643 0.000373544 30.2543 0.636374 33.1583 1.90637C35.9915 3.1287 38.5666 4.87842 40.7463 7.06237C42.9222 9.25754 44.6635 11.8443 45.8783 14.6864C47.1423 17.6044 47.7763 20.7064 47.7763 24.0004C47.7763 24.7524 47.7463 25.4724 47.6883 26.1644C47.6283 26.8584 47.5443 27.5244 47.4283 28.1564H8.70834L8.71034 28.1604ZM39.0603 19.9284C38.6066 18.2677 37.8939 16.689 36.9483 15.2504C36.0158 13.8241 34.8502 12.5645 33.5003 11.5244C32.1558 10.4893 30.6577 9.67077 29.0603 9.09837C27.3988 8.51258 25.6481 8.22023 23.8863 8.23437C22.135 8.2283 20.3968 8.53652 18.7543 9.14437C17.1439 9.73639 15.6321 10.5685 14.2703 11.6124C12.9263 12.643 11.7607 13.8876 10.8203 15.2964C9.86927 16.7168 9.15593 18.2826 8.70834 19.9324H39.0603V19.9284ZM49.2343 5.72037L55.0963 0.00237354L72.5163 18.1104L89.9323 0.00237354L95.7923 5.72037L78.2103 24.0004L95.8003 42.2804L89.9363 48.0004L72.5163 29.8924L55.1003 48.0004L49.2383 42.2824L66.8243 24.0004L49.2343 5.72037ZM100.89 22.7864C100.89 19.6664 101.478 16.7204 102.658 13.9464C103.799 11.2301 105.453 8.75952 107.53 6.67037C109.607 4.58724 112.067 2.92539 114.774 1.77637C117.554 0.58892 120.548 -0.0155455 123.57 0.000373544C126.676 0.000373544 129.604 0.594374 132.366 1.77637C135.074 2.92544 137.534 4.58728 139.61 6.67037C141.686 8.76102 143.34 11.2321 144.48 13.9484C145.663 16.744 146.264 19.751 146.248 22.7864V46.6104H137.28V22.3504C137.292 20.5053 136.924 18.6776 136.2 16.9804C135.511 15.3494 134.516 13.8649 133.27 12.6064C132.02 11.3556 130.542 10.3557 128.916 9.66037C127.228 8.93379 125.408 8.5647 123.57 8.57637C121.672 8.57637 119.89 8.94037 118.224 9.66037C116.556 10.3824 115.104 11.3644 113.87 12.6064C112.623 13.8641 111.628 15.3488 110.938 16.9804C110.214 18.6782 109.847 20.5067 109.858 22.3524V46.6104H100.89V22.7864ZM161.162 28.1604C161.622 29.8344 162.338 31.3804 163.316 32.7964C164.274 34.1903 165.436 35.4317 166.764 36.4784C168.088 37.5184 169.566 38.3264 171.206 38.9044C172.855 39.4839 174.591 39.7768 176.338 39.7704C179.038 39.7704 181.396 39.2044 183.41 38.0804C185.42 36.9544 187.032 35.6724 188.238 34.2264H197.984C197.055 36.2056 195.849 38.0431 194.404 39.6844C192.94 41.3593 191.259 42.831 189.404 44.0604C187.512 45.3139 185.451 46.2904 183.282 46.9604C181.068 47.6544 178.756 48.0004 176.342 48.0004C173.064 48.0004 169.972 47.3644 167.07 46.0944C164.237 44.8727 161.662 43.1229 159.482 40.9384C157.306 38.7432 155.565 36.1564 154.35 33.3144C153.081 30.3741 152.436 27.2027 152.454 24.0004C152.454 20.7084 153.084 17.6044 154.35 14.6864C155.564 11.8438 157.306 9.25686 159.482 7.06237C161.664 4.88014 164.238 3.13066 167.07 1.90637C169.994 0.631654 173.151 -0.0175776 176.34 0.000373544C179.616 0.000373544 182.706 0.636374 185.612 1.90637C188.446 3.12874 191.021 4.87846 193.2 7.06237C195.375 9.25777 197.116 11.8445 198.33 14.6864C199.594 17.6044 200.228 20.7064 200.228 24.0004C200.228 24.7524 200.2 25.4724 200.14 26.1644C200.082 26.8584 199.998 27.5244 199.88 28.1564H161.164L161.162 28.1604ZM191.514 19.9284C191.061 18.2677 190.348 16.689 189.402 15.2504C188.47 13.824 187.304 12.5644 185.954 11.5244C184.609 10.4892 183.11 9.67067 181.512 9.09837C179.851 8.51258 178.1 8.22023 176.338 8.23437C174.587 8.2283 172.849 8.53652 171.206 9.14437C169.596 9.73634 168.084 10.5684 166.722 11.6124C165.379 12.6432 164.214 13.8878 163.274 15.2964C162.323 16.7168 161.61 18.2826 161.162 19.9324H191.514V19.9284ZM225.4 47.9984C220.168 47.9984 215.642 46.7704 211.82 44.3164C207.996 41.8604 205.31 38.4964 203.758 34.2224H213.328C214.536 36.0704 216.218 37.5024 218.372 38.5124C220.545 39.5278 222.916 40.0457 225.314 40.0284C228.302 40.0284 230.616 39.4964 232.254 38.4244C233.892 37.3564 234.712 35.8984 234.712 34.0504C234.712 32.5484 234.12 31.3964 232.944 30.5864C231.764 29.7764 229.794 29.1124 227.036 28.5944L220.31 27.2944C215.02 26.3124 211.168 24.7544 208.754 22.6144C206.34 20.4804 205.13 17.5904 205.13 13.9504C205.13 11.9304 205.576 10.0664 206.466 8.36237C207.371 6.64059 208.635 5.13377 210.174 3.94437C211.754 2.70437 213.636 1.73437 215.822 1.04237C218.006 0.350374 220.42 0.00237354 223.066 0.00237354C227.95 0.00237354 232.178 1.17237 235.742 3.51237C239.306 5.85237 241.806 9.10237 243.246 13.2584H233.674C232.696 11.5844 231.274 10.2844 229.406 9.36037C227.536 8.43637 225.45 7.97237 223.154 7.97237C220.394 7.97237 218.252 8.47837 216.728 9.48837C215.204 10.5004 214.444 11.9284 214.444 13.7764C214.444 15.1044 215.032 16.1724 216.212 16.9824C217.388 17.7904 219.328 18.4544 222.032 18.9724L228.758 20.2724C233.988 21.2544 237.842 22.8584 240.314 25.0824C242.784 27.3044 244.022 30.2364 244.022 33.8744C244.022 35.9544 243.56 37.8464 242.642 39.5484C241.691 41.2897 240.383 42.8108 238.804 44.0124C237.166 45.2824 235.196 46.2644 232.896 46.9564C230.604 47.6524 228.104 47.9964 225.4 47.9964V47.9984ZM269.378 47.9984C264.146 47.9984 259.618 46.7704 255.796 44.3164C251.972 41.8604 249.288 38.4964 247.734 34.2224H257.304C258.514 36.0704 260.194 37.5024 262.348 38.5124C264.521 39.5276 266.892 40.0455 269.29 40.0284C272.28 40.0284 274.592 39.4964 276.23 38.4244C277.868 37.3564 278.688 35.8984 278.688 34.0504C278.688 32.5484 278.096 31.3964 276.92 30.5864C275.74 29.7764 273.772 29.1124 271.012 28.5944L264.286 27.2944C258.996 26.3124 255.144 24.7544 252.73 22.6144C250.316 20.4804 249.108 17.5904 249.108 13.9504C249.108 11.9304 249.552 10.0664 250.444 8.36237C251.348 6.64068 252.612 5.13385 254.15 3.94437C255.73 2.70437 257.612 1.73437 259.798 1.04237C261.982 0.350374 264.398 0.00237354 267.042 0.00237354C271.926 0.00237354 276.154 1.17237 279.718 3.51237C283.284 5.85237 285.782 9.10237 287.222 13.2584H277.652C276.674 11.5844 275.25 10.2844 273.382 9.36037C271.514 8.43637 269.428 7.97237 267.13 7.97237C264.37 7.97237 262.23 8.47837 260.706 9.48837C259.182 10.5004 258.42 11.9284 258.42 13.7764C258.42 15.1044 259.008 16.1724 260.188 16.9824C261.366 17.7904 263.306 18.4544 266.008 18.9724L272.736 20.2724C277.964 21.2544 281.818 22.8584 284.29 25.0824C286.76 27.3044 287.998 30.2364 287.998 33.8744C287.998 35.9544 287.538 37.8464 286.618 39.5484C285.667 41.2897 284.359 42.8108 282.78 44.0124C281.142 45.2824 279.172 46.2644 276.872 46.9564C274.58 47.6524 272.08 47.9964 269.378 47.9964V47.9984Z" fill="#141D22"/>
</g>
<defs>
<clipPath id="clip0_1474_7153">
<rect width="288" height="48" fill="white"/>
</clipPath>
</defs>
</svg>
