<svg width="381" height="80" viewBox="0 0 381 80" fill="none" xmlns="http://www.w3.org/2000/svg">
<path d="M109.37 26.6666V61.3333H99.744V26.6666H87.66V18.3589H121.557V26.6666H109.37ZM128.52 18.3589H138.146V61.3333H128.52V18.3589ZM168.356 52.8204C173.067 52.8204 176.959 50.9743 179.928 47.1794L186.073 53.5384C181.157 59.0768 175.422 61.7435 168.868 61.7435C162.212 61.7435 156.784 59.6922 152.483 55.4871C148.182 51.282 146.032 46.0512 146.032 39.6922C146.032 33.3333 148.182 27.9999 152.586 23.6922C156.989 19.3845 162.314 17.3333 168.561 17.3333C175.627 17.3333 181.464 19.9999 186.278 25.4358L180.338 32.205C177.266 28.4102 173.579 26.564 169.073 26.564C165.489 26.564 162.417 27.6922 159.857 30.0512C157.296 32.4102 156.068 35.5897 156.068 39.5897C156.068 43.5897 157.296 46.7691 159.652 49.2307C162.007 51.6922 164.977 52.8204 168.356 52.8204ZM193.651 18.3589H203.277V35.9999L219.457 18.3589H231.336L214.235 37.3333C215.668 39.3845 218.433 43.1794 222.427 48.8204C226.421 54.4615 229.391 58.564 231.336 61.3333H220.174L207.578 44.3076L203.277 49.1281V61.3333H193.651V18.3589ZM275.678 34.2563L264.107 57.7435H258.372L246.8 34.2563V61.3333H237.174V18.3589H250.179L261.239 41.9486L272.401 18.3589H285.305V61.3333H275.678V34.2563ZM295.853 18.3589H305.479V61.3333H295.853V18.3589ZM316.027 61.3333V18.3589H325.653V52.8204H343.984V61.3333H316.027ZM350.947 61.3333V18.3589H360.573V52.8204H378.904V61.3333H350.947Z" fill="#303030"/>
<path d="M18.1259 31.6923C18.1259 30.8718 18.7404 29.8462 19.4572 29.4359L33.5893 21.2308C34.3062 20.8205 35.4327 20.8205 36.1495 21.2308L48.5407 28.4103L65.9498 18.359C65.8474 18.2564 65.745 18.1539 65.5402 18.0513L37.9928 1.7436C36.2519 0.717955 33.3845 0.717955 31.746 1.7436L4.19865 18.0513C2.45774 19.0769 1.02405 21.641 1.02405 23.6923V55.7949L18.1259 45.9487V31.6923ZM51.5105 33.8462V48.1026C51.5105 48.9231 50.896 49.9487 50.1792 50.359L36.0471 58.5641C35.3302 58.9744 34.2038 58.9744 33.4869 58.5641L21.0957 51.3846L3.68662 61.4359C3.78902 61.5385 3.89143 61.641 4.09624 61.7436L31.6436 77.9487C33.3845 78.9744 36.2519 78.9744 37.8904 77.9487L65.5402 61.7436C67.2811 60.718 68.7148 58.1539 68.7148 56.1026V24L51.5105 33.8462Z" fill="#CC0000"/>
</svg>
